<svg width="40" height="40" viewBox="0 0 40 40" fill="none" xmlns="http://www.w3.org/2000/svg">
<g clip-path="url(#clip0)">
<rect x="6" y="5" width="27.5" height="29.5" fill="white"/>
<path d="M39.9937 10.2087C39.9937 8.97875 39.89 7.75375 39.5962 6.55625C39.0687 4.375 37.825 2.70875 35.9637 1.485C35.0062 0.86 33.9525 0.47625 32.8325 0.27375C31.9724 0.123272 31.1018 0.0405179 30.2287 0.02625C30.1637 0.02 30.0925 0.00625 30.02 0H9.98123C9.72748 0.02 9.47373 0.0325 9.21998 0.045C7.97623 0.11625 6.73998 0.24625 5.56748 0.715C3.34123 1.59375 1.73248 3.13 0.794978 5.34375C0.469978 6.0925 0.306228 6.88625 0.189978 7.69375C0.092478 8.345 0.039978 9.0025 0.021228 9.66C0.021228 9.7125 0.00872803 9.76375 0.00872803 9.81625V30.1875L0.047478 30.8912C0.132478 32.2525 0.307478 33.6 0.881228 34.85C1.96248 37.2137 3.77873 38.7687 6.27248 39.5175C6.96873 39.7325 7.69873 39.83 8.42748 39.895C9.35248 39.9862 10.2762 39.9987 11.2012 39.9987H29.5862C30.4587 39.9987 31.3312 39.94 32.2037 39.83C33.5775 39.6537 34.8662 39.25 36.0325 38.4825C37.413 37.5882 38.5015 36.3094 39.1637 34.8037C39.4762 34.1 39.6525 33.3525 39.7825 32.5962C39.9712 31.47 40.01 30.33 40.01 29.1912C40.0037 22.8625 40.01 16.535 40.0037 10.2062L39.9937 10.2087ZM29.29 16.855V26.3737C29.29 27.07 29.1925 27.7537 28.88 28.385C28.3987 29.3675 27.6175 29.9862 26.5687 30.2862C25.9877 30.4527 25.3889 30.5488 24.785 30.5725C24.0256 30.6174 23.2762 30.3815 22.6794 29.9096C22.0827 29.4378 21.6802 28.763 21.5487 28.0137C21.4283 27.3396 21.5324 26.6445 21.8451 26.0353C22.1579 25.4261 22.662 24.9363 23.28 24.6412C23.8137 24.3812 24.3937 24.225 24.9725 24.1075C25.6037 23.9712 26.235 23.8475 26.86 23.7037C27.3225 23.6 27.6212 23.32 27.7125 22.8437C27.7387 22.74 27.745 22.6287 27.745 22.525V13.45C27.7427 13.3464 27.7276 13.2436 27.7 13.1437C27.635 12.89 27.4525 12.74 27.1925 12.7525C26.925 12.765 26.665 12.8112 26.405 12.8637C25.135 13.1112 23.8662 13.365 22.6025 13.625L16.4375 14.8687C16.4112 14.875 16.3787 14.8887 16.3525 14.8887C15.89 15.0187 15.7275 15.2275 15.7075 15.7087C15.7012 15.78 15.7075 15.8525 15.7075 15.9237C15.7012 20.26 15.7075 24.5962 15.7012 28.9312C15.7012 29.635 15.6225 30.325 15.3437 30.975C14.8812 32.0425 14.0612 32.7137 12.955 33.0325C12.3701 33.2027 11.7663 33.2989 11.1575 33.3187C9.56248 33.3775 8.23373 32.3162 7.96123 30.7475C7.72623 29.3937 8.34498 27.935 9.88123 27.2837C10.48 27.0362 11.0987 26.9 11.73 26.77L13.1625 26.4775C13.8 26.3412 14.1325 25.9375 14.165 25.2862V25.0387V10.2337C14.165 10.025 14.1912 9.8175 14.2362 9.615C14.3537 9.14 14.6925 8.86625 15.1475 8.755C15.5712 8.64375 16.0075 8.56625 16.4362 8.475C17.66 8.2275 18.8775 7.98 20.1012 7.73875L23.8837 6.97C25.0037 6.74875 26.1162 6.52125 27.2362 6.3C27.6012 6.22875 27.9725 6.15 28.3425 6.12375C28.8562 6.07875 29.215 6.40375 29.2675 6.925C29.28 7.04875 29.2875 7.1725 29.2875 7.29625V16.8475L29.29 16.855Z" fill="black"/>
</g>
<defs>
<clipPath id="clip0">
<rect width="40" height="40" fill="white"/>
</clipPath>
</defs>
</svg>
