<svg width="40" height="40" viewBox="0 0 40 40" fill="none" xmlns="http://www.w3.org/2000/svg">
<path d="M20 5C11.7137 5 5 11.7137 5 20C5 28.2863 11.7137 35 20 35C28.2863 35 35 28.2863 35 20C35 11.7137 28.2863 5 20 5ZM20 7.5C21.6434 7.49339 23.2718 7.81219 24.7914 8.43804C26.3109 9.06388 27.6915 9.98437 28.8536 11.1464C30.0156 12.3085 30.9361 13.6891 31.562 15.2086C32.1878 16.7282 32.5066 18.3566 32.5 20C32.5066 21.6434 32.1878 23.2718 31.562 24.7914C30.9361 26.3109 30.0156 27.6915 28.8536 28.8536C27.6915 30.0156 26.3109 30.9361 24.7914 31.562C23.2718 32.1878 21.6434 32.5066 20 32.5C18.3566 32.5066 16.7282 32.1878 15.2086 31.562C13.6891 30.9361 12.3085 30.0156 11.1464 28.8536C9.98437 27.6915 9.06388 26.3109 8.43804 24.7914C7.81219 23.2718 7.49339 21.6434 7.5 20C7.49339 18.3566 7.81219 16.7282 8.43804 15.2086C9.06388 13.6891 9.98437 12.3085 11.1464 11.1464C12.3085 9.98437 13.6891 9.06388 15.2086 8.43804C16.7282 7.81219 18.3566 7.49339 20 7.5ZM18.0075 13.4375C15.5763 13.4375 13.4575 13.6625 11.445 14.2975C10.9125 14.4037 10.4688 14.805 10.4688 15.5475C10.4688 16.2887 11.0163 16.9438 11.7575 16.835C12.075 16.835 12.29 16.7188 12.5 16.7188C14.1938 16.2937 16.1038 16.0938 18.0075 16.0938C21.7087 16.0938 25.5075 16.9187 28.0462 18.3988C28.3638 18.5062 28.4713 18.6325 28.7887 18.6325C29.5312 18.6325 30.0487 18.0863 30.1562 17.3438C30.1562 16.7087 29.8388 16.3038 29.4137 16.0938C26.24 14.2963 22.0263 13.4375 18.0075 13.4375ZM17.6562 18.0863C15.435 18.0863 13.8525 18.4037 12.265 18.8287C11.7388 19.0375 11.445 19.3663 11.445 20C11.445 20.5275 11.865 21.055 12.5 21.055C12.715 21.055 12.8075 21.045 13.125 20.9375C14.2875 20.62 15.8837 20.43 17.5787 20.43C21.0688 20.43 24.1062 21.28 26.3288 22.6562C26.5375 22.7638 26.7537 22.8512 27.07 22.8512C27.705 22.8512 28.125 22.3137 28.125 21.68C28.125 21.255 27.925 20.835 27.5 20.625C24.75 18.9312 21.255 18.0863 17.6562 18.0863ZM18.0075 22.6562C16.2113 22.6562 14.5075 22.8563 12.8125 23.2812C12.3875 23.3888 12.07 23.6912 12.07 24.2188C12.07 24.6437 12.4025 25.0788 12.93 25.0788C13.0375 25.0788 13.345 24.9613 13.555 24.9613C14.9768 24.6297 16.4313 24.459 17.8912 24.4525C20.5325 24.4525 22.9487 25.0875 24.9613 26.25C25.1763 26.3575 25.415 26.445 25.625 26.445C26.05 26.445 26.455 26.1275 26.5625 25.7038C26.5625 25.1712 26.3325 24.975 26.015 24.7663C23.6863 23.3888 20.9663 22.6562 18.0075 22.6562Z" fill="white"/>
</svg>
