<svg width="40" height="40" viewBox="0 0 40 40" fill="none" xmlns="http://www.w3.org/2000/svg">
<path d="M8.99881 16.3846C9.3634 16.3846 9.71307 16.5264 9.97087 16.7789C10.2287 17.0314 10.3735 17.3738 10.3735 17.7308V27.1538C10.3735 27.5109 10.2287 27.8533 9.97087 28.1057C9.71307 28.3582 9.3634 28.5 8.99881 28.5C8.63422 28.5 8.28456 28.3582 8.02675 28.1057C7.76894 27.8533 7.62411 27.5109 7.62411 27.1538V17.7308C7.62411 17.3738 7.76894 17.0314 8.02675 16.7789C8.28456 16.5264 8.63422 16.3846 8.99881 16.3846ZM13.1229 17.7308C13.4875 17.7308 13.8372 17.8726 14.095 18.1251C14.3528 18.3775 14.4976 18.7199 14.4976 19.0769V27.1538C14.4976 27.5109 14.3528 27.8533 14.095 28.1057C13.8372 28.3582 13.4875 28.5 13.1229 28.5C12.7583 28.5 12.4087 28.3582 12.1509 28.1057C11.8931 27.8533 11.7482 27.5109 11.7482 27.1538V19.0769C11.7482 18.7199 11.8931 18.3775 12.1509 18.1251C12.4087 17.8726 12.7583 17.7308 13.1229 17.7308ZM17.247 12.3462C17.6116 12.3462 17.9613 12.488 18.2191 12.7404C18.4769 12.9929 18.6217 13.3353 18.6217 13.6923V27.1538C18.6217 27.5109 18.4769 27.8533 18.2191 28.1057C17.9613 28.3582 17.6116 28.5 17.247 28.5C16.8824 28.5 16.5328 28.3582 16.275 28.1057C16.0172 27.8533 15.8723 27.5109 15.8723 27.1538V13.6923C15.8723 13.3353 16.0172 12.9929 16.275 12.7404C16.5328 12.488 16.8824 12.3462 17.247 12.3462ZM24.1205 11C26.2546 10.9999 28.3056 11.8098 29.8427 13.2595C31.3798 14.7092 32.2832 16.6858 32.3633 18.774L32.3674 19.124C33.5504 19.2891 34.6284 19.8794 35.3915 20.78C36.1545 21.6806 36.548 22.827 36.4953 23.9961C36.4427 25.1651 35.9476 26.2732 35.1066 27.1044C34.2655 27.9357 33.1387 28.4308 31.9453 28.4933L31.6814 28.5H26.8686C26.5182 28.4996 26.1812 28.3682 25.9264 28.1327C25.6716 27.8972 25.5183 27.5753 25.4978 27.2327C25.4772 26.8902 25.591 26.553 25.8159 26.2898C26.0408 26.0267 26.3598 25.8576 26.7077 25.8171L26.8699 25.8077H31.6085L31.7983 25.805C32.2932 25.7789 32.762 25.5791 33.1188 25.2422C33.4756 24.9052 33.6966 24.4537 33.7411 23.9703C33.7857 23.4868 33.651 23.0039 33.3616 22.6098C33.0722 22.2157 32.6475 21.9369 32.1653 21.8244L31.9797 21.7894L29.5465 21.4502L29.6194 19.0446L29.6139 18.8077C29.5457 17.4742 28.9739 16.213 28.0097 15.269C27.0454 14.325 25.7573 13.7655 24.3955 13.699L24.1205 13.6923C23.7521 13.6923 23.3906 13.7273 23.0373 13.796L22.7458 13.8619V27.1538C22.7458 27.4836 22.6222 27.8018 22.3984 28.0482C22.1747 28.2946 21.8664 28.452 21.532 28.4906L21.3711 28.5C21.0065 28.5 20.6569 28.3582 20.3991 28.1057C20.1413 27.8533 19.9964 27.5109 19.9964 27.1538L19.9951 12.081C21.2488 11.3706 22.6721 10.9976 24.1205 11ZM4.8747 19.0769C5.2393 19.0769 5.58896 19.2188 5.84676 19.4712C6.10457 19.7237 6.24941 20.0661 6.24941 20.4231V25.8077C6.24941 26.1647 6.10457 26.5071 5.84676 26.7596C5.58896 27.012 5.2393 27.1538 4.8747 27.1538C4.51011 27.1538 4.16045 27.012 3.90264 26.7596C3.64483 26.5071 3.5 26.1647 3.5 25.8077V20.4231C3.5 20.0661 3.64483 19.7237 3.90264 19.4712C4.16045 19.2188 4.51011 19.0769 4.8747 19.0769Z" fill="white"/>
</svg>
